:SAMPLES-PER-SECOND 30
:FULLY-SPECIFIED
:DEGREES
298
root  -75.9297 41.0307 -2.2683 4.81165 65.8488 6.75281
RightUpLeg  -5.81524 7.23495 -6.18881
RightLeg  19.9396 -2.2164 -1.11383
RightFoot  -12.1251 -0.0701441 1.71364
RightToes  -1.33073e-015 0 -3.6325e-017
Spine  12.4451 1.84269 0.0334002
Spine1  0.870819 2.11361 -0.921494
HEad  -4.86044 17.8635 -10.1912
LeftShoulder1  6.59198 -10.469 -40.8667
LeftArm  -13.3254 13.5615 -24.6844
LeftForeArm  46.5023 -48.4084 -9.21768
LeftHand  -0.244104 0.0205437 5.32207
RightShoulder  4.50019 8.02989 33.075
RightArm  -0.143575 -18.6138 40.7587
RightForeArm  8.79953 19.1427 4.99208
RightHand  -0.854769 1.61683 -14.2877
LeftUpLeg  -8.75242 -1.84913 -4.78548
LeftLeg  10.848 -26.0047 -6.02981
LeftFoot  -0.375422 0.760384 -7.89235
LeftToes  -7.82198e-011 2.46994e-011 -7.94165e-012
299
root  -76.1888 41.0374 -1.9265 6.51617 70.1399 8.07123
RightUpLeg  -5.74681 1.27832 -5.94784
RightLeg  19.6029 -0.758446 -0.557483
RightFoot  -11.273 -0.0773127 0.61304
RightToes  -1.33073e-015 0 -3.6325e-017
Spine  12.4007 1.82775 0.864062
Spine1  0.813259 2.2646 -1.38282
HEad  -3.94461 14.0748 -9.48046
LeftShoulder1  6.57964 -10.2767 -41.3982
LeftArm  -12.3696 14.1768 -25.3581
LeftForeArm  45.4246 -47.1974 -8.84446
LeftHand  -0.244104 0.0205437 5.32207
RightShoulder  4.59652 8.09296 33.6907
RightArm  -2.20073 -19.0899 41.5747
RightForeArm  9.24655 19.3831 4.83367
RightHand  -0.913607 2.30675 -13.9299
LeftUpLeg  -9.41461 -3.90168 -4.7872
LeftLeg  10.9113 -28.32 -5.69261
LeftFoot  -0.459958 0.887476 -9.27698
LeftToes  -7.82198e-011 2.46994e-011 -7.94165e-012
300
root  -76.4372 41.0755 -1.64664 8.63379 73.3804 9.88422
RightUpLeg  -5.45923 -4.9105 -6.11116
RightLeg  19.3652 1.58206 0.361276
RightFoot  -10.9794 -0.074331 -0.052402
RightToes  -1.33073e-015 0 -3.6325e-017
Spine  12.3537 1.89648 2.0337
Spine1  0.826814 2.60946 -2.26457
HEad  -2.30878 9.22575 -8.05457
LeftShoulder1  6.62013 -10.1443 -42.1042
LeftArm  -11.7441 15.0771 -25.3825
LeftForeArm  43.4211 -44.534 -8.05645
LeftHand  -0.244104 0.0205437 5.32207
RightShoulder  4.65128 8.09384 34.1557
RightArm  -4.61092 -18.6577 41.6801
RightForeArm  10.0708 19.2296 4.72566
RightHand  -0.975568 2.7224 -14.1231
LeftUpLeg  -9.80554 -5.7364 -4.85964
LeftLeg  10.4495 -29.9209 -5.10941
LeftFoot  -0.63102 0.969629 -10.2899
LeftToes  -7.82198e-011 2.46994e-011 -7.94165e-012
301
root  -76.6752 41.1263 -1.39771 11.1429 76.164 12.2579
RightUpLeg  -4.74938 -9.4767 -6.4483
RightLeg  18.2713 3.21034 1.18014
RightFoot  -10.6089 -0.0698237 -0.308431
RightToes  -1.33073e-015 0 -3.6325e-017
Spine  12.4357 1.93649 3.20184
Spine1  0.759827 2.92126 -3.142
HEad  -1.33801 8.38893 -7.56553
LeftShoulder1  6.66939 -10.1293 -42.4895
LeftArm  -10.9283 15.9928 -24.8945
LeftForeArm  41.0822 -40.4977 -6.95071
LeftHand  -0.244104 0.0205437 5.32207
RightShoulder  4.62971 7.98864 34.3333
RightArm  -7.06053 -17.9544 40.8194
RightForeArm  10.2075 19.1344 4.61938
RightHand  -1.05412 2.91601 -14.8918
LeftUpLeg  -10.157 -7.08997 -4.86719
LeftLeg  10.0538 -27.7955 -4.15794
LeftFoot  -1.14716 0.85554 -9.48486
LeftToes  -7.82198e-011 2.46994e-011 -7.94165e-012
302
root  -76.8999 41.1735 -1.1638 14.1522 78.5544 15.2529
RightUpLeg  -4.05679 -11.6729 -6.60957
RightLeg  17.0894 3.03759 1.61608
RightFoot  -10.1055 -0.0621522 -0.580878
RightToes  -1.33073e-015 0 -3.6325e-017
Spine  12.5684 1.99043 4.15404
Spine1  0.723158 3.21505 -3.91297
HEad  -0.329887 7.4487 -6.73691
LeftShoulder1  6.63577 -10.1459 -42.2063
LeftArm  -9.62614 16.5415 -23.9965
LeftForeArm  38.559 -35.6385 -5.76578
LeftHand  -0.244104 0.0205437 5.32207
RightShoulder  4.45794 7.65382 34.003
RightArm  -9.6269 -17.2048 39.0662
RightForeArm  9.60526 19.0604 4.52961
RightHand  -1.14541 3.09563 -15.8212
LeftUpLeg  -10.582 -7.02828 -4.4917
LeftLeg  9.93636 -19.1309 -2.72328
LeftFoot  -2.50632 0.540803 -6.75483
LeftToes  -7.82198e-011 2.46994e-011 -7.94165e-012
303
root  -77.0923 41.2072 -0.947972 18.1439 80.5352 19.1021
RightUpLeg  -3.88212 -12.467 -6.44509
RightLeg  16.6623 1.76759 1.59378
RightFoot  -9.88879 -0.0557231 -0.879459
RightToes  -1.33073e-015 0 -3.6325e-017
Spine  12.3207 2.03213 4.593
Spine1  0.858041 3.38117 -4.31889
HEad  0.749024 6.27361 -5.88778
LeftShoulder1  6.43531 -10.0242 -41.2295
LeftArm  -8.25009 16.8015 -22.7202
LeftForeArm  35.8947 -30.9398 -4.76617
LeftHand  -0.244104 0.0205437 5.32207
RightShoulder  4.12295 7.06465 33.064
RightArm  -12.6827 -16.1651 36.6093
RightForeArm  9.35409 18.3375 4.44598
RightHand  -1.22935 3.31626 -16.5373
LeftUpLeg  -11.2184 -4.2755 -3.83001
LeftLeg  10.3239 -6.90414 -1.1232
LeftFoot  -4.30088 0.262306 -3.86866
LeftToes  -7.82198e-011 2.46994e-011 -7.94165e-012
304
root  -77.2493 41.2311 -0.774596 23.3102 82.5 24.0899
RightUpLeg  -3.75491 -12.9927 -6.1751
RightLeg  16.4174 0.211756 1.44388
RightFoot  -9.87349 -0.0560477 -0.95172
RightToes  -1.33073e-015 0 -3.6325e-017
Spine  11.8153 1.80239 4.6776
Spine1  0.962586 3.12696 -4.23454
HEad  1.92303 5.56328 -5.21157
LeftShoulder1  6.07668 -9.70535 -39.7518
LeftArm  -7.45583 16.9156 -21.0708
LeftForeArm  33.0303 -26.7332 -3.96427
LeftHand  -0.244104 0.0205437 5.32207
RightShoulder  3.73801 6.44278 31.633
RightArm  -16.1641 -14.8136 33.4466
RightForeArm  9.56355 16.7671 4.27588
RightHand  -1.32257 3.70081 -17.0329
LeftUpLeg  -11.9387 0.74754 -3.13497
LeftLeg  11.7045 1.74347 0.0336345
LeftFoot  -5.44722 0.173631 -2.76945
LeftToes  -7.82198e-011 2.46994e-011 -7.94165e-012
305
root  -77.3825 41.2504 -0.658346 31.8723 84.5252 32.5621
RightUpLeg  -3.33787 -13.4117 -6.15256
RightLeg  15.814 -1.51647 1.60153
RightFoot  -9.76144 -0.0614211 -0.910661
RightToes  -1.33073e-015 0 -3.6325e-017
Spine  11.3001 1.34826 4.64603
Spine1  0.895636 2.55527 -3.7888
HEad  3.07598 5.32253 -4.67581
LeftShoulder1  5.64225 -9.29154 -37.9305
LeftArm  -7.66647 16.5517 -19.1015
LeftForeArm  30.5332 -22.5344 -3.39756
LeftHand  -0.244104 0.0205437 5.32207
RightShoulder  3.37166 5.91105 29.8417
RightArm  -19.3964 -13.639 29.5754
RightForeArm  8.78664 15.0718 3.98757
RightHand  -1.46233 4.3762 -17.5299
LeftUpLeg  -12.4195 5.82644 -2.63934
LeftLeg  13.7419 3.5417 0.660976
LeftFoot  -5.62414 0.199718 -3.31853
LeftToes  -7.82198e-011 2.46994e-011 -7.94165e-012
306
root  -77.4769 41.2731 -0.587314 46.9881 86.0891 47.7382
RightUpLeg  -2.70507 -13.5504 -6.41081
RightLeg  15.1225 -3.23601 2.00124
RightFoot  -9.60399 -0.0552452 -1.03013
RightToes  -1.33073e-015 0 -3.6325e-017
Spine  10.8432 1.04716 4.54688
Spine1  0.732633 2.13487 -3.27752
HEad  4.26974 4.78832 -4.12224
LeftShoulder1  5.15585 -8.83621 -35.6835
LeftArm  -9.65425 15.4034 -16.9399
LeftForeArm  30.1998 -18.2135 -3.49468
LeftHand  -0.244104 0.0205437 5.32207
RightShoulder  2.96228 5.26231 27.7658
RightArm  -21.8307 -13.051 25.2251
RightForeArm  6.44525 13.8813 3.68687
RightHand  -1.62499 5.14337 -18.0607
LeftUpLeg  -12.2849 8.48084 -2.15913
LeftLeg  15.4101 2.51424 0.919397
LeftFoot  -5.47783 0.219216 -3.63753
LeftToes  -7.82198e-011 2.46994e-011 -7.94165e-012
307
root  -77.5062 41.2996 -0.549239 66.7037 86.7523 67.5361
RightUpLeg  -2.17905 -13.4232 -6.70376
RightLeg  14.7221 -4.62626 2.18321
RightFoot  -9.61052 -0.0467915 -1.17923
RightToes  -1.33073e-015 0 -3.6325e-017
Spine  10.2937 1.05438 4.32669
Spine1  0.491917 2.06762 -2.9633
HEad  5.75658 3.88976 -3.3886
LeftShoulder1  4.57647 -8.24862 -32.8738
LeftArm  -12.074 13.8655 -14.8014
LeftForeArm  30.9528 -14.6687 -3.63323
LeftHand  -0.244104 0.0205437 5.32207
RightShoulder  2.47874 4.34534 25.467
RightArm  -23.5055 -12.8216 20.7969
RightForeArm  3.75983 12.9459 3.39789
RightHand  -1.75346 5.6899 -18.521
LeftUpLeg  -11.5378 9.3396 -1.55753
LeftLeg  16.3171 3.16483 1.348
LeftFoot  -5.65944 0.188684 -3.11894
LeftToes  -7.82198e-011 2.46994e-011 -7.94165e-012
308
root  -77.4734 41.3161 -0.557823 83.9182 86.8494 84.6765
RightUpLeg  -1.96469 -13.0677 -6.81181
RightLeg  14.5457 -5.8197 1.97022
RightFoot  -9.72103 -0.0503798 -1.09005
RightToes  -1.33073e-015 0 -3.6325e-017
Spine  9.48951 1.09379 4.16224
Spine1  0.135698 2.08223 -2.95265
HEad  7.53737 3.25569 -2.43774
LeftShoulder1  3.92895 -7.48647 -29.6589
LeftArm  -13.7213 12.6101 -12.6624
LeftForeArm  30.9694 -12.6529 -3.45524
LeftHand  -0.244104 0.0205437 5.32207
RightShoulder  1.99671 3.34839 22.9039
RightArm  -24.5554 -12.4123 16.6988
RightForeArm  1.53178 11.7287 3.06208
RightHand  -1.84972 6.02218 -18.9577
LeftUpLeg  -10.474 10.7482 -0.962092
LeftLeg  16.7581 5.81663 2.29183
LeftFoot  -5.56953 0.184346 -2.98719
LeftToes  -7.82198e-011 2.46994e-011 -7.94165e-012
309
root  -77.4049 41.3114 -0.629557 97.8267 86.9318 98.3576
RightUpLeg  -1.98941 -12.6575 -6.66799
RightLeg  14.4347 -6.93803 1.63427
RightFoot  -9.74775 -0.0533437 -0.91069
RightToes  -1.33073e-015 0 -3.6325e-017
Spine  8.44355 0.950569 4.34042
Spine1  -0.221912 1.95528 -3.17326
HEad  9.20252 3.00118 -1.52908
LeftShoulder1  3.29808 -6.63164 -26.3611
LeftArm  -14.961 11.7636 -10.4104
LeftForeArm  30.2338 -11.9295 -3.13992
LeftHand  -0.244104 0.0205437 5.32207
RightShoulder  1.57232 2.44905 19.9945
RightArm  -25.0005 -11.587 13.1594
RightForeArm  -0.552794 10.2607 2.7671
RightHand  -1.93812 6.31369 -19.3594
LeftUpLeg  -9.14943 13.2311 -0.242101
LeftLeg  16.6598 8.01661 3.0071
LeftFoot  -4.54826 0.255563 -3.82757
LeftToes  -7.82198e-011 2.46994e-011 -7.94165e-012
